<?xml version="1.0" encoding="UTF-8"?>
<svg width="22px" height="15px" viewBox="0 0 22 15" version="1.1" xmlns="http://www.w3.org/2000/svg" xmlns:xlink="http://www.w3.org/1999/xlink">
    <title>fast-forward</title>
    <defs>
        <filter id="filter-1">
            <feColorMatrix in="SourceGraphic" type="matrix" values="0 0 0 0 1.000000 0 0 0 0 1.000000 0 0 0 0 1.000000 0 0 0 1.000000 0"></feColorMatrix>
        </filter>
    </defs>
    <g id="Page-1" stroke="none" stroke-width="1" fill="none" fill-rule="evenodd">
        <g filter="url(#filter-1)" id="fast-forward">
            <g>
                <path d="M2.28022667,0.246326667 C1.83016533,-0.0537093333 1.25150667,-0.0816786667 0.774605333,0.173550667 C0.297704,0.42878 0,0.925774667 0,1.46666667 L0,13.2 C0,13.7409067 0.297704,14.23796 0.774605333,14.49316 C1.25150667,14.74836 1.83016533,14.7203467 2.28022667,14.4204133 L10.2666667,9.09612 L10.2666667,13.2 C10.2666667,13.7409067 10.5644,14.23796 11.0412133,14.49316 C11.5181733,14.74836 12.0967733,14.7203467 12.5468933,14.4204133 L21.3468933,8.55374667 C21.75492,8.28168 22,7.82378667 22,7.33333333 C22,6.84295333 21.75492,6.385016 21.3468933,6.11299333 L12.5468933,0.246326667 C12.0967733,-0.0537093333 11.5181733,-0.0816786667 11.0412133,0.173550667 C10.5644,0.42878 10.2666667,0.925774667 10.2666667,1.46666667 L10.2666667,5.57062 L2.28022667,0.246326667 Z" id="Path" fill="#374151" fill-rule="nonzero"></path>
            </g>
        </g>
    </g>
</svg>