<?xml version="1.0" encoding="UTF-8"?>
<svg width="22px" height="22px" viewBox="0 0 22 22" version="1.1" xmlns="http://www.w3.org/2000/svg" xmlns:xlink="http://www.w3.org/1999/xlink">
    <title>pause</title>
    <defs>
        <filter id="filter-1">
            <feColorMatrix in="SourceGraphic" type="matrix" values="0 0 0 0 1.000000 0 0 0 0 1.000000 0 0 0 0 1.000000 0 0 0 1.000000 0"></feColorMatrix>
        </filter>
    </defs>
    <g id="Page-1" stroke="none" stroke-width="1" fill="none" fill-rule="evenodd">
        <g filter="url(#filter-1)" id="pause">
            <g>
                <path d="M22,11 C22,17.0751625 17.0751625,22 11,22 C4.924865,22 0,17.0751625 0,11 C0,4.924865 4.924865,0 11,0 C17.0751625,0 22,4.924865 22,11 Z M6.875,8.25 C6.875,7.490615 7.490615,6.875 8.25,6.875 C9.009385,6.875 9.625,7.490615 9.625,8.25 L9.625,13.75 C9.625,14.5094125 9.009385,15.125 8.25,15.125 C7.490615,15.125 6.875,14.5094125 6.875,13.75 L6.875,8.25 Z M13.75,6.875 C12.9905875,6.875 12.375,7.490615 12.375,8.25 L12.375,13.75 C12.375,14.5094125 12.9905875,15.125 13.75,15.125 C14.5094125,15.125 15.125,14.5094125 15.125,13.75 L15.125,8.25 C15.125,7.490615 14.5094125,6.875 13.75,6.875 Z" id="Shape" fill="#4B5563"></path>
            </g>
        </g>
    </g>
</svg>