<?xml version="1.0" encoding="UTF-8"?>
<svg width="16px" height="16px" viewBox="0 0 22 22" version="1.1" xmlns="http://www.w3.org/2000/svg" xmlns:xlink="http://www.w3.org/1999/xlink">
    <title>play</title>
    <defs>
        <filter id="filter-1">
            <feColorMatrix in="SourceGraphic" type="matrix" values="0 0 0 0 1.000000 0 0 0 0 1.000000 0 0 0 0 1.000000 0 0 0 1.000000 0"></feColorMatrix>
        </filter>
    </defs>
    <g id="Page-1" stroke="none" stroke-width="1" fill="none" fill-rule="evenodd">
        <g filter="url(#filter-1)" id="play">
            <g>
                <path d="M11,22 C17.0751625,22 22,17.0751625 22,11 C22,4.924865 17.0751625,0 11,0 C4.924865,0 0,4.924865 0,11 C0,17.0751625 4.924865,22 11,22 Z M10.3877125,7.10593125 C9.96578,6.8246475 9.4232875,6.79842625 8.9761925,7.03770375 C8.5290975,7.27698125 8.25,7.74291375 8.25,8.25 L8.25,13.75 C8.25,14.2571 8.5290975,14.7230875 8.9761925,14.9623375 C9.4232875,15.2015875 9.96578,15.175325 10.3877125,14.8941375 L14.5127125,12.1441375 C14.8952375,11.889075 15.125,11.4598 15.125,11 C15.125,10.5402687 14.8952375,10.1109525 14.5127125,9.85593125 L10.3877125,7.10593125 Z" id="Shape" fill="#4B5563"></path>
            </g>
        </g>
    </g>
</svg>