<?xml version="1.0" encoding="UTF-8"?>
<svg width="22px" height="15px" viewBox="0 0 22 15" version="1.1" xmlns="http://www.w3.org/2000/svg" xmlns:xlink="http://www.w3.org/1999/xlink">
    <title>rewind</title>
    <defs>
        <filter id="filter-1">
            <feColorMatrix in="SourceGraphic" type="matrix" values="0 0 0 0 1.000000 0 0 0 0 1.000000 0 0 0 0 1.000000 0 0 0 1.000000 0"></feColorMatrix>
        </filter>
    </defs>
    <g id="Page-1" stroke="none" stroke-width="1" fill="none" fill-rule="evenodd">
        <g filter="url(#filter-1)" id="rewind">
            <g>
                <path d="M9.45310667,14.4204133 C9.903168,14.7203467 10.4818267,14.74836 10.958728,14.49316 C11.4356147,14.23796 11.7333333,13.7409067 11.7333333,13.2 L11.7333333,9.09612 L19.7197733,14.4204133 C20.1698933,14.7203467 20.7484933,14.74836 21.2254533,14.49316 C21.7022667,14.23796 22,13.7409067 22,13.2 L22,1.46666667 C22,0.925774667 21.7022667,0.42878 21.2254533,0.173550667 C20.7484933,-0.0816786667 20.1698933,-0.0537093333 19.7197733,0.246326667 L11.7333333,5.57062 L11.7333333,1.46666667 C11.7333333,0.925774667 11.4356293,0.42878 10.958728,0.173550667 C10.4818267,-0.0816786667 9.903168,-0.0537093333 9.45310667,0.246326667 L0.653106667,6.11299333 C0.24508,6.385016 0,6.84295333 0,7.33333333 C0,7.82378667 0.24508,8.28168 0.653106667,8.55374667 L9.45310667,14.4204133 Z" id="Path" fill="#374151" fill-rule="nonzero"></path>
            </g>
        </g>
    </g>
</svg>