<?xml version="1.0" encoding="UTF-8"?>
<svg width="23px" height="20px" viewBox="0 0 23 20" version="1.1" xmlns="http://www.w3.org/2000/svg" xmlns:xlink="http://www.w3.org/1999/xlink">
    <title>volume-up</title>
    <defs>
        <filter id="filter-1">
            <feColorMatrix in="SourceGraphic" type="matrix" values="0 0 0 0 1.000000 0 0 0 0 1.000000 0 0 0 0 1.000000 0 0 0 1.000000 0"></feColorMatrix>
        </filter>
    </defs>
    <g id="Page-1" stroke="none" stroke-width="1" fill="none" fill-rule="evenodd">
        <g id="Panel-Expanded" transform="translate(-30.000000, -130.000000)">
            <g id="Bottom-Panel" transform="translate(0.000000, 100.000000)">
                <g id="volume-up" transform="translate(30.000000, 7.000000)" filter="url(#filter-1)">
                    <g transform="translate(0.000000, 23.000000)">
                        <path d="M10.47835,1.3451875 C10.94545,1.5386625 11.25,1.9944625 11.25,2.5000375 L11.25,17.5 C11.25,18.005625 10.94545,18.461375 10.47835,18.654875 C10.0112625,18.848375 9.4736125,18.741375 9.1161125,18.383875 L4.4822375,13.7499995 L1.25,13.7499995 C0.55965,13.7499995 0,13.190375 0,12.5 L0,7.5000375 C0,6.809675 0.55965,6.2500375 1.25,6.2500375 L4.4822375,6.2500375 L9.1161125,1.61615 C9.4736125,1.25865 10.0112625,1.1517125 10.47835,1.3451875 Z" id="Path" fill="#4A5568"></path>
                        <path d="M17.071,1.1611 C17.55925,0.67295 18.350625,0.67295 18.838875,1.1611 C21.0995,3.4217875 22.5,6.5485 22.5,9.9999375 C22.5,13.451375 21.0995,16.578125 18.838875,18.83875 C18.350625,19.326875 17.55925,19.326875 17.071,18.83875 C16.582875,18.350625 16.582875,17.559125 17.071,17.071 C18.882125,15.26 20,12.76175 20,9.9999375 C20,7.2381625 18.882125,4.739875 17.071,2.9288625 C16.582875,2.4407125 16.582875,1.64925 17.071,1.1611 Z M13.5355,4.6966375 C14.023625,4.208475 14.815125,4.208475 15.30325,4.6966375 C15.960625,5.3539875 16.497,6.1335875 16.875375,6.999475 C17.2775,7.9199 17.5,8.9355875 17.5,9.9999375 C17.5,12.070625 16.659125,13.947375 15.30325,15.30325 C14.815125,15.791375 14.023625,15.791375 13.5355,15.30325 C13.047375,14.815125 13.047375,14.023625 13.5355,13.5355 C14.44175,12.62925 15,11.381 15,9.9999375 C15,9.286525 14.851375,8.611125 14.5845,8.0004 C14.332875,7.424475 13.97525,6.9040875 13.5355,6.4644 C13.047375,5.97625 13.047375,5.1847875 13.5355,4.6966375 Z" id="Shape" fill="#4A5568"></path>
                    </g>
                </g>
            </g>
        </g>
    </g>
</svg>